{
  "accessors": [
    {
      "bufferView": 2,
      "componentType": 5126,
      "count": 25025,
      "max": [
        1.8580875396728516,
        1.7984609603881836,
        1.880878210067749
      ],
      "min": [
        -1.7656385898590088,
        -1.8267552852630615,
        -1.9015040397644043
      ],
      "type": "VEC3"
    },
    {
      "bufferView": 2,
      "byteOffset": 300300,
      "componentType": 5126,
      "count": 25025,
      "max": [
        0.9999537467956543,
        0.9999942779541016,
        0.9999053478240967
      ],
      "min": [
        -0.9999231100082397,
        -0.9999792575836182,
        -0.9998476505279541
      ],
      "type": "VEC3"
    },
    {
      "bufferView": 1,
      "componentType": 5126,
      "count": 25025,
      "max": [
        0.875,
        1.0
      ],
      "min": [
        0.125,
        0.0
      ],
      "type": "VEC2"
    },
    {
      "bufferView": 2,
      "byteOffset": 600600,
      "componentType": 5126,
      "count": 25025,
      "max": [
        0.2720358371734619,
        0.26571035385131836,
        0.2704819440841675
      ],
      "min": [
        -0.26034045219421387,
        -0.2738140821456909,
        -0.242156982421875
      ],
      "type": "VEC3"
    },
    {
      "bufferView": 2,
      "byteOffset": 900900,
      "componentType": 5126,
      "count": 25025,
      "max": [
        1.0802267789840698,
        1.075870394706726,
        0.9551111459732056
      ],
      "min": [
        -0.9067550897598267,
        -0.9334570169448853,
        -0.9231176972389221
      ],
      "type": "VEC3"
    },
    {
      "bufferView": 2,
      "byteOffset": 1201200,
      "componentType": 5126,
      "count": 25025,
      "max": [
        0.5524795055389404,
        0.5316004753112793,
        0.5232424736022949
      ],
      "min": [
        -0.45927464962005615,
        -0.5588781833648682,
        -0.4531106948852539
      ],
      "type": "VEC3"
    },
    {
      "bufferView": 2,
      "byteOffset": 1501500,
      "componentType": 5126,
      "count": 25025,
      "max": [
        1.3019003868103027,
        1.310862421989441,
        1.48816978931427
      ],
      "min": [
        -1.1976087093353271,
        -1.9497876167297363,
        -1.2444608211517334
      ],
      "type": "VEC3"
    },
    {
      "bufferView": 2,
      "byteOffset": 1801800,
      "componentType": 5126,
      "count": 25025,
      "max": [
        0.6301348805427551,
        0.5737210512161255,
        0.7368909120559692
      ],
      "min": [
        -0.5650742053985596,
        -0.8458209037780762,
        -0.549340546131134
      ],
      "type": "VEC3"
    },
    {
      "bufferView": 2,
      "byteOffset": 2102100,
      "componentType": 5126,
      "count": 25025,
      "max": [
        1.3155533075332642,
        1.429202914237976,
        1.5331547260284424
      ],
      "min": [
        -1.3095033168792725,
        -1.9357012510299683,
        -1.7543904781341553
      ],
      "type": "VEC3"
    },
    {
      "bufferView": 2,
      "byteOffset": 2402400,
      "componentType": 5126,
      "count": 25025,
      "max": [
        0.6109115481376648,
        0.4882568120956421,
        0.8044251203536987
      ],
      "min": [
        -0.5390943288803101,
        -0.8284260630607605,
        -0.5565729737281799
      ],
      "type": "VEC3"
    },
    {
      "bufferView": 2,
      "byteOffset": 2702700,
      "componentType": 5126,
      "count": 25025,
      "max": [
        1.7974278926849365,
        1.7673428058624268,
        1.8423175811767578
      ],
      "min": [
        -1.2876675128936768,
        -1.2319457530975342,
        -1.0991212129592896
      ],
      "type": "VEC3"
    },
    {
      "bufferView": 2,
      "byteOffset": 3003000,
      "componentType": 5126,
      "count": 25025,
      "max": [
        0.46008652448654175,
        0.30390042066574097,
        0.6685734987258911
      ],
      "min": [
        -0.3043917417526245,
        -0.6068294048309326,
        -0.44925457239151
      ],
      "type": "VEC3"
    },
    {
      "bufferView": 2,
      "byteOffset": 3303300,
      "componentType": 5126,
      "count": 25025,
      "max": [
        1.5499414205551147,
        1.687561273574829,
        1.5404155254364014
      ],
      "min": [
        -1.1113028526306152,
        -1.5829439163208008,
        -1.2071328163146973
      ],
      "type": "VEC3"
    },
    {
      "bufferView": 2,
      "byteOffset": 3603600,
      "componentType": 5126,
      "count": 25025,
      "max": [
        0.2935156226158142,
        0.21753495931625366,
        0.44568049907684326
      ],
      "min": [
        -0.18654370307922363,
        -0.3596380949020386,
        -0.2665046453475952
      ],
      "type": "VEC3"
    },
    {
      "bufferView": 2,
      "byteOffset": 3903900,
      "componentType": 5126,
      "count": 25025,
      "max": [
        1.3799198865890503,
        0.9061503410339355,
        1.150542974472046
      ],
      "min": [
        -1.0262670516967773,
        -1.342259407043457,
        -0.8324058055877686
      ],
      "type": "VEC3"
    },
    {
      "bufferView": 2,
      "byteOffset": 4204200,
      "componentType": 5126,
      "count": 25025,
      "max": [
        0.1726081371307373,
        0.11890983581542969,
        0.25776970386505127
      ],
      "min": [
        -0.1409304141998291,
        -0.21248286962509155,
        -0.13519811630249023
      ],
      "type": "VEC3"
    },
    {
      "bufferView": 2,
      "byteOffset": 4504500,
      "componentType": 5126,
      "count": 25025,
      "max": [
        0.8819907307624817,
        0.583568274974823,
        1.0493113994598389
      ],
      "min": [
        -0.9025846123695374,
        -0.8957866430282593,
        -0.6454974412918091
      ],
      "type": "VEC3"
    },
    {
      "bufferView": 2,
      "byteOffset": 4804800,
      "componentType": 5126,
      "count": 25025,
      "max": [
        0.18236088752746582,
        0.1031038761138916,
        0.13035297393798828
      ],
      "min": [
        -0.14696812629699707,
        -0.20388150215148926,
        -0.10822808742523193
      ],
      "type": "VEC3"
    },
    {
      "bufferView": 2,
      "byteOffset": 5105100,
      "componentType": 5126,
      "count": 25025,
      "max": [
        0.5938769578933716,
        0.40832334756851196,
        0.6785362958908081
      ],
      "min": [
        -0.470792680978775,
        -0.4754229485988617,
        -0.5261818170547485
      ],
      "type": "VEC3"
    },
    {
      "bufferView": 2,
      "byteOffset": 5405400,
      "componentType": 5126,
      "count": 25025,
      "max": [
        0.0,
        0.0,
        0.0
      ],
      "min": [
        0.0,
        0.0,
        0.0
      ],
      "type": "VEC3"
    },
    {
      "bufferView": 2,
      "byteOffset": 5705700,
      "componentType": 5126,
      "count": 25025,
      "max": [
        1.4901161193847656e-05,
        2.7298927307128906e-05,
        1.4424324035644531e-05
      ],
      "min": [
        -3.0271708965301514e-05,
        -1.817941665649414e-05,
        -2.7239322662353516e-05
      ],
      "type": "VEC3"
    },
    {
      "bufferView": 0,
      "componentType": 5125,
      "count": 147456,
      "type": "SCALAR"
    },
    {
      "bufferView": 3,
      "componentType": 5126,
      "count": 50,
      "max": [
        2.0833332538604736
      ],
      "min": [
        0.0416666679084301
      ],
      "type": "SCALAR"
    },
    {
      "bufferView": 3,
      "byteOffset": 200,
      "componentType": 5126,
      "count": 450,
      "max": [
        0.9999984502792358
      ],
      "min": [
        0.0
      ],
      "type": "SCALAR"
    }
  ],
  "animations": [
    {
      "channels": [
        {
          "sampler": 0,
          "target": {
            "node": 4,
            "path": "weights"
          }
        }
      ],
      "name": "MorphBake",
      "samplers": [
        {
          "input": 22,
          "interpolation": "LINEAR",
          "output": 23
        }
      ]
    }
  ],
  "asset": {
    "extras": {
      "author": "endike (https://sketchfab.com/endike)",
      "license": "SKETCHFAB Standard (https://sketchfab.com/licenses)",
      "source": "https://sketchfab.com/3d-models/strange-liquid-metal-object-2b5b26d350754abb9b2701a80a384b26",
      "title": "Strange liquid metal object"
    },
    "generator": "Sketchfab-13.21.0",
    "version": "2.0"
  },
  "bufferViews": [
    {
      "buffer": 0,
      "byteLength": 589824,
      "name": "floatBufferViews",
      "target": 34963
    },
    {
      "buffer": 0,
      "byteLength": 200200,
      "byteOffset": 589824,
      "byteStride": 8,
      "name": "floatBufferViews",
      "target": 34962
    },
    {
      "buffer": 0,
      "byteLength": 6006000,
      "byteOffset": 790024,
      "byteStride": 12,
      "name": "floatBufferViews",
      "target": 34962
    },
    {
      "buffer": 0,
      "byteLength": 2000,
      "byteOffset": 6796024,
      "name": "floatBufferViews"
    }
  ],
  "buffers": [
    {
      "byteLength": 6798024,
      "uri": "scene.bin"
    }
  ],
  "materials": [
    {
      "doubleSided": true,
      "name": "Scene_-_Root",
      "pbrMetallicRoughness": {
        "roughnessFactor": 0.059428752544769654
      }
    }
  ],
  "meshes": [
    {
      "name": "mesh_0",
      "primitives": [
        {
          "attributes": {
            "NORMAL": 1,
            "POSITION": 0,
            "TEXCOORD_0": 2
          },
          "indices": 21,
          "material": 0,
          "mode": 4,
          "targets": [
            {
              "NORMAL": 4,
              "POSITION": 3
            },
            {
              "NORMAL": 6,
              "POSITION": 5
            },
            {
              "NORMAL": 8,
              "POSITION": 7
            },
            {
              "NORMAL": 10,
              "POSITION": 9
            },
            {
              "NORMAL": 12,
              "POSITION": 11
            },
            {
              "NORMAL": 14,
              "POSITION": 13
            },
            {
              "NORMAL": 16,
              "POSITION": 15
            },
            {
              "NORMAL": 18,
              "POSITION": 17
            },
            {
              "NORMAL": 20,
              "POSITION": 19
            }
          ]
        }
      ],
      "weights": [
        0.0,
        0.0,
        0.0,
        0.0,
        0.0,
        0.0,
        0.0,
        0.0,
        0.0
      ]
    }
  ],
  "nodes": [
    {
      "children": [
        1
      ],
      "matrix": [
        1.0,
        0.0,
        0.0,
        0.0,
        0.0,
        2.220446049250313e-16,
        -1.0,
        0.0,
        0.0,
        1.0,
        2.220446049250313e-16,
        0.0,
        0.0,
        0.0,
        0.0,
        1.0
      ],
      "name": "Sketchfab_model"
    },
    {
      "children": [
        2
      ],
      "name": "root"
    },
    {
      "children": [
        3
      ],
      "matrix": [
        1.0,
        0.0,
        0.0,
        0.0,
        0.0,
        2.220446049250313e-16,
        1.0,
        0.0,
        0.0,
        -1.0,
        2.220446049250313e-16,
        0.0,
        0.0,
        0.0,
        0.0,
        1.0
      ],
      "name": "GLTF_SceneRootNode"
    },
    {
      "children": [
        4
      ],
      "name": "Cube_0",
      "translation": [
        0.9014260768890381,
        -4.649162292480469e-06,
        0.42908793687820435
      ]
    },
    {
      "mesh": 0,
      "name": "mesh_0"
    }
  ],
  "scene": 0,
  "scenes": [
    {
      "name": "Sketchfab_Scene",
      "nodes": [
        0
      ]
    }
  ]
}
